<svg width="266" height="59" viewBox="0 0 266 59" fill="none" xmlns="http://www.w3.org/2000/svg">
<path d="M58.0463 56V17.52H68.0363V56H58.0463ZM57.0103 8.418C57.0103 5.236 59.6003 2.572 63.0043 2.572C66.4823 2.572 68.9983 5.236 68.9983 8.418C68.9983 11.748 66.4823 14.338 63.0043 14.338C59.6003 14.338 57.0103 11.674 57.0103 8.418ZM88.3228 56C80.7008 56 76.5568 52.448 76.5568 44.086V26.03H71.1548V17.52H76.5568V9.75L86.5468 8.714V17.52H94.6868V26.03H86.5468V43.568C86.5468 46.01 87.7308 47.12 89.6548 47.12H93.7988V56H88.3228ZM110.637 56.962C104.125 56.962 98.8707 54.742 94.6527 50.228L101.387 44.086C104.199 47.268 107.159 48.822 110.415 48.822C113.819 48.822 115.743 47.12 115.743 44.826C115.743 42.828 114.781 41.718 108.713 40.312C98.4267 37.87 96.8727 33.208 96.8727 28.324C96.8727 21.59 102.201 16.558 111.229 16.558C117.445 16.558 121.589 18.112 125.511 23.218L118.259 28.768C116.409 25.808 114.041 24.624 111.451 24.624C108.713 24.624 106.641 25.66 106.641 28.028C106.641 29.36 107.233 30.544 111.821 31.728C122.995 34.614 125.585 38.758 125.585 44.53C125.585 51.634 119.147 56.962 110.637 56.962ZM147.63 56.962C136.604 56.962 127.798 47.934 127.798 36.76C127.798 25.586 136.382 16.632 148.148 16.558C155.178 16.484 160.876 19.222 164.132 23.736L156.436 30.026C154.66 27.362 151.7 25.66 148.296 25.66C141.932 25.66 137.788 30.766 137.788 36.76C137.788 42.754 142.154 47.86 148.518 47.86C152.366 47.86 154.882 45.936 156.88 43.272L164.132 49.562C160.506 54.224 155.178 56.962 147.63 56.962ZM182.966 56.962C172.384 56.962 163.948 48.008 163.948 36.908C163.948 25.808 172.384 16.706 182.966 16.706C189.626 16.706 193.104 19.444 195.176 23.588V17.52H205.092V56H195.398V49.71C193.326 54.076 189.848 56.962 182.966 56.962ZM173.938 36.834C173.938 42.68 178.23 47.934 184.594 47.934C191.18 47.934 195.398 42.902 195.398 36.908C195.398 30.914 191.18 25.734 184.594 25.734C178.23 25.734 173.938 30.84 173.938 36.834ZM210.828 56V1.98H220.818V56H210.828ZM244.952 56.962C233.038 56.962 225.046 47.934 225.046 36.834C225.046 25.734 233.408 16.558 244.952 16.558C256.496 16.558 264.488 25.734 264.488 36.834C264.488 37.944 264.414 39.128 264.192 40.386H235.406C236.516 44.9 239.92 48.082 244.952 48.082C249.244 48.082 252.574 45.862 254.35 42.902L262.12 48.748C259.012 53.558 252.574 56.962 244.952 56.962ZM235.406 32.912H254.424C253.314 28.62 249.688 25.142 244.804 25.142C240.068 25.142 236.516 28.324 235.406 32.912Z" fill="#2E3238"/>
<g clip-path="url(#clip0_457_2)">
<rect x="13.6025" y="0.600127" width="7" height="14.9025" rx="0.5" transform="rotate(13.0714 13.6025 0.600127)" fill="#2E3238" stroke="#383B40"/>
<rect x="22.1309" y="9.03906" width="7" height="13" rx="0.5" transform="rotate(-90 22.1309 9.03906)" fill="#2E3238" stroke="#383B40"/>
<rect x="26.1328" y="33.0352" width="7" height="9" transform="rotate(-90 26.1328 33.0352)" fill="#2E3238" stroke="#383B40"/>
<rect x="9.47162" y="18.3931" width="7" height="19.8215" rx="0.5" transform="rotate(13.0714 9.47162 18.3931)" fill="#2E3238" stroke="#383B40"/>
<rect x="4.18451" y="41.1743" width="7" height="15.8433" rx="0.5" transform="rotate(13.0714 4.18451 41.1743)" fill="#2E3238" stroke="#383B40"/>
<path d="M10.6251 53.9814C10.259 53.7965 10.259 53.2738 10.6251 53.0889L19.4074 48.6522C19.7399 48.4842 20.1328 48.7259 20.1328 49.0985V57.9718C20.1328 58.3444 19.7399 58.5861 19.4074 58.4181L10.6251 53.9814Z" fill="#2E3238" stroke="#383B40"/>
<path d="M16.6251 29.9814C16.259 29.7965 16.259 29.2738 16.6251 29.0889L25.4074 24.6522C25.7399 24.4842 26.1328 24.7259 26.1328 25.0985V33.9718C26.1328 34.3444 25.7399 34.5861 25.4074 34.4181L16.6251 29.9814Z" fill="#2E3238" stroke="#383B40"/>
<rect x="20.1328" y="57.0352" width="7" height="15" rx="0.5" transform="rotate(-90 20.1328 57.0352)" fill="#2E3238" stroke="#383B40"/>
<mask id="path-10-inside-1_457_2" fill="white">
<path d="M34.1531 25.5464C36.3196 25.5479 38.4645 25.9629 40.4655 26.7677C42.4665 27.5725 44.2844 28.7513 45.8152 30.2368C47.3461 31.7223 48.5601 33.4854 49.3878 35.4254C50.2155 37.3655 50.6407 39.4445 50.6392 41.5437C50.6377 43.643 50.2095 45.7214 49.3791 47.6603C48.5486 49.5991 47.3321 51.3605 45.7992 52.8438C44.2662 54.3271 42.4467 55.5033 40.4445 56.3053C38.4424 57.1072 36.2968 57.5191 34.1303 57.5176L34.136 49.5371C35.2209 49.5379 36.2953 49.3316 37.298 48.93C38.3006 48.5284 39.2117 47.9394 39.9794 47.1966C40.7471 46.4538 41.3563 45.5718 41.7721 44.6009C42.188 43.6299 42.4024 42.5891 42.4032 41.5379C42.4039 40.4866 42.191 39.4455 41.7765 38.474C41.362 37.5025 40.7541 36.6196 39.9875 35.8757C39.2209 35.1318 38.3105 34.5415 37.3085 34.1385C36.3065 33.7355 35.2323 33.5276 34.1474 33.5269L34.1531 25.5464Z"/>
</mask>
<path d="M34.1531 25.5464C36.3196 25.5479 38.4645 25.9629 40.4655 26.7677C42.4665 27.5725 44.2844 28.7513 45.8152 30.2368C47.3461 31.7223 48.5601 33.4854 49.3878 35.4254C50.2155 37.3655 50.6407 39.4445 50.6392 41.5437C50.6377 43.643 50.2095 45.7214 49.3791 47.6603C48.5486 49.5991 47.3321 51.3605 45.7992 52.8438C44.2662 54.3271 42.4467 55.5033 40.4445 56.3053C38.4424 57.1072 36.2968 57.5191 34.1303 57.5176L34.136 49.5371C35.2209 49.5379 36.2953 49.3316 37.298 48.93C38.3006 48.5284 39.2117 47.9394 39.9794 47.1966C40.7471 46.4538 41.3563 45.5718 41.7721 44.6009C42.188 43.6299 42.4024 42.5891 42.4032 41.5379C42.4039 40.4866 42.191 39.4455 41.7765 38.474C41.362 37.5025 40.7541 36.6196 39.9875 35.8757C39.2209 35.1318 38.3105 34.5415 37.3085 34.1385C36.3065 33.7355 35.2323 33.5276 34.1474 33.5269L34.1531 25.5464Z" fill="#2E3238" stroke="#383B40" stroke-width="2" mask="url(#path-10-inside-1_457_2)"/>
<mask id="path-11-inside-2_457_2" fill="white">
<path d="M34.1531 1.54638C36.3196 1.54792 38.4645 1.96293 40.4655 2.76771C42.4665 3.57248 44.2844 4.75127 45.8152 6.23676C47.3461 7.72225 48.5601 9.48536 49.3878 11.4254C50.2155 13.3655 50.6407 15.4445 50.6392 17.5437C50.6377 19.643 50.2095 21.7214 49.3791 23.6603C48.5486 25.5991 47.3321 27.3605 45.7992 28.8438C44.2662 30.3271 42.4467 31.5033 40.4445 32.3053C38.4424 33.1072 36.2968 33.5191 34.1303 33.5176L34.136 25.5371C35.2209 25.5379 36.2953 25.3316 37.298 24.93C38.3006 24.5284 39.2117 23.9394 39.9794 23.1966C40.7471 22.4538 41.3563 21.5718 41.7721 20.6009C42.188 19.6299 42.4024 18.5891 42.4032 17.5379C42.4039 16.4866 42.191 15.4455 41.7765 14.474C41.362 13.5025 40.7541 12.6196 39.9875 11.8757C39.2209 11.1318 38.3105 10.5415 37.3085 10.1385C36.3065 9.73546 35.2323 9.52763 34.1474 9.52686L34.1531 1.54638Z"/>
</mask>
<path d="M34.1531 1.54638C36.3196 1.54792 38.4645 1.96293 40.4655 2.76771C42.4665 3.57248 44.2844 4.75127 45.8152 6.23676C47.3461 7.72225 48.5601 9.48536 49.3878 11.4254C50.2155 13.3655 50.6407 15.4445 50.6392 17.5437C50.6377 19.643 50.2095 21.7214 49.3791 23.6603C48.5486 25.5991 47.3321 27.3605 45.7992 28.8438C44.2662 30.3271 42.4467 31.5033 40.4445 32.3053C38.4424 33.1072 36.2968 33.5191 34.1303 33.5176L34.136 25.5371C35.2209 25.5379 36.2953 25.3316 37.298 24.93C38.3006 24.5284 39.2117 23.9394 39.9794 23.1966C40.7471 22.4538 41.3563 21.5718 41.7721 20.6009C42.188 19.6299 42.4024 18.5891 42.4032 17.5379C42.4039 16.4866 42.191 15.4455 41.7765 14.474C41.362 13.5025 40.7541 12.6196 39.9875 11.8757C39.2209 11.1318 38.3105 10.5415 37.3085 10.1385C36.3065 9.73546 35.2323 9.52763 34.1474 9.52686L34.1531 1.54638Z" fill="#2E3238" stroke="#383B40" stroke-width="2" mask="url(#path-11-inside-2_457_2)"/>
</g>
<defs>
<clipPath id="clip0_457_2">
<rect width="51" height="59" fill="white"/>
</clipPath>
</defs>
</svg>
